<svg xmlns="http://www.w3.org/2000/svg" viewBox="0 0 150 52" width="150" height="52"><rect width="150" height="52" rx="10" fill="#F3F6FC"/><circle cx="4.3" cy="7.5" r="0.6" fill="hsl(207,40%,70%)"/><circle cx="15.6" cy="25.1" r="1.5" fill="hsl(223,40%,70%)"/><circle cx="144.6" cy="41.3" r="0.9" fill="hsl(155,40%,70%)"/><circle cx="90.4" cy="30.8" r="1.6" fill="hsl(166,40%,70%)"/><circle cx="6.4" cy="50.9" r="1.1" fill="hsl(93,40%,70%)"/><circle cx="89.2" cy="38.1" r="1.4" fill="hsl(132,40%,70%)"/><circle cx="98.5" cy="12.9" r="1.6" fill="hsl(94,40%,70%)"/><circle cx="121.9" cy="15.4" r="1.7" fill="hsl(319,40%,70%)"/><circle cx="101.6" cy="29.1" r="1.6" fill="hsl(268,40%,70%)"/><circle cx="120.9" cy="47.7" r="1.7" fill="hsl(335,40%,70%)"/><circle cx="18.1" cy="37.1" r="1.5" fill="hsl(109,40%,70%)"/><circle cx="145.1" cy="26.2" r="1.6" fill="hsl(179,40%,70%)"/><circle cx="6.9" cy="50.4" r="1.2" fill="hsl(290,40%,70%)"/><circle cx="38.2" cy="33.8" r="0.8" fill="hsl(290,40%,70%)"/><circle cx="149.7" cy="8.3" r="1.4" fill="hsl(44,40%,70%)"/><circle cx="64.3" cy="8.9" r="1.6" fill="hsl(32,40%,70%)"/><circle cx="43.2" cy="21.0" r="1.6" fill="hsl(39,40%,70%)"/><circle cx="13.0" cy="2.9" r="1.0" fill="hsl(217,40%,70%)"/><circle cx="148.5" cy="35.3" r="1.7" fill="hsl(42,40%,70%)"/><circle cx="119.2" cy="49.0" r="1.6" fill="hsl(72,40%,70%)"/><circle cx="74.3" cy="22.7" r="1.3" fill="hsl(74,40%,70%)"/><circle cx="74.0" cy="10.1" r="0.8" fill="hsl(331,40%,70%)"/><circle cx="80.8" cy="3.2" r="0.9" fill="hsl(120,40%,70%)"/><circle cx="134.8" cy="24.5" r="1.1" fill="hsl(230,40%,70%)"/><circle cx="94.6" cy="35.2" r="1.8" fill="hsl(354,40%,70%)"/><circle cx="59.7" cy="45.0" r="1.7" fill="hsl(337,40%,70%)"/><circle cx="43.3" cy="26.3" r="1.0" fill="hsl(161,40%,70%)"/><circle cx="46.4" cy="19.0" r="1.0" fill="hsl(76,40%,70%)"/><circle cx="61.9" cy="19.9" r="1.8" fill="hsl(30,40%,70%)"/><circle cx="102.8" cy="5.0" r="1.7" fill="hsl(75,40%,70%)"/><circle cx="79.9" cy="22.5" r="1.3" fill="hsl(263,40%,70%)"/><circle cx="123.0" cy="50.1" r="0.9" fill="hsl(342,40%,70%)"/><circle cx="6.0" cy="5.3" r="1.1" fill="hsl(263,40%,70%)"/><circle cx="18.6" cy="15.5" r="0.8" fill="hsl(17,40%,70%)"/><circle cx="46.8" cy="5.2" r="1.4" fill="hsl(148,40%,70%)"/><circle cx="124.0" cy="40.4" r="1.1" fill="hsl(142,40%,70%)"/><circle cx="71.9" cy="50.8" r="1.8" fill="hsl(34,40%,70%)"/><circle cx="73.4" cy="4.9" r="1.7" fill="hsl(233,40%,70%)"/><circle cx="91.0" cy="22.0" r="1.4" fill="hsl(6,40%,70%)"/><circle cx="3.0" cy="27.3" r="1.7" fill="hsl(245,40%,70%)"/><path d="M9.5 13.0 C33.2 31.4 84.7 7.1 146.6 41.0" stroke="hsl(231,35%,60%)" stroke-width="1.3" fill="none"/><path d="M4.7 16.5 C46.6 19.1 100.3 38.2 147.2 40.7" stroke="hsl(243,35%,60%)" stroke-width="1.3" fill="none"/><path d="M8.5 26.0 C50.9 24.3 109.9 48.4 145.8 27.7" stroke="hsl(208,35%,60%)" stroke-width="1.5" fill="none"/><path d="M30.8 16.6L31.0 20.3M115.5 39.4L119.7 39.8M23.1 35.5L20.5 35.7M85.7 24.9L89.3 23.1M98.2 33.6L97.6 36.9M116.3 25.2L111.8 29.0" stroke="hsl(208,55%,35%)" stroke-width="2.63" stroke-linecap="round" fill="none"/><path d="M116.7 16.1L120.0 18.9M53.0 4.7L49.3 9.6M99.8 10.7L105.5 14.3M74.1 13.9L73.6 17.1" stroke="hsl(222,30%,65%)" stroke-width="0.83" stroke-linecap="round" fill="none"/><path d="M81.2 13.9L81.1 25.8M121.2 26.4L116.3 25.2M61.6 24.8L64.4 24.3M124.0 39.9L125.5 38.1" stroke="hsl(204,55%,27%)" stroke-width="3.10" stroke-linecap="round" fill="none"/><path d="M93.0 21.8L94.7 23.4M114.0 21.0L112.0 25.0M30.7 27.6L28.6 31.4M125.5 38.1L127.6 35.4" stroke="hsl(240,55%,30%)" stroke-width="2.92" stroke-linecap="round" fill="none"/><path d="M21.3 24.2L19.1 23.8M126.8 27.8L121.2 26.4M111.4 35.1L113.0 36.0M81.1 25.8L85.7 24.9" stroke="hsl(215,55%,30%)" stroke-width="2.92" stroke-linecap="round" fill="none"/><path d="M127.6 35.4L128.6 34.0M128.3 30.4L126.8 27.8M113.0 36.0L114.7 38.4M93.0 21.8L94.7 23.4" stroke="hsl(208,55%,28%)" stroke-width="3.15" stroke-linecap="round" fill="none"/><path d="M93.4 41.9L97.0 38.2M143.3 34.9L146.3 41.3M12.0 14.0L14.4 11.7M22.4 12.5L23.7 8.4" stroke="hsl(211,30%,68%)" stroke-width="1.08" stroke-linecap="round" fill="none"/><path d="M64.7 11.8L58.6 37.3M112.0 25.0L111.9 28.2M123.8 11.8L120.6 13.1" stroke="hsl(243,55%,23%)" stroke-width="2.80" stroke-linecap="round" fill="none"/><path d="M30.5 24.4L30.7 27.6M96.6 25.3L98.0 26.9M20.5 35.7L17.1 36.6M19.1 23.8L15.3 18.3" stroke="hsl(239,55%,24%)" stroke-width="3.13" stroke-linecap="round" fill="none"/><path d="M59.4 41.7L64.4 35.1M58.8 10.8L60.6 5.5M72.5 9.4L72.6 15.9M18.8 45.7L13.7 41.7" stroke="hsl(233,30%,66%)" stroke-width="0.94" stroke-linecap="round" fill="none"/><path d="M116.3 25.2L111.8 29.0M29.0 22.2L26.9 23.9M115.1 17.5L114.0 21.0M81.2 13.9L81.1 25.8M121.2 26.4L116.3 25.2" stroke="hsl(248,55%,26%)" stroke-width="2.89" stroke-linecap="round" fill="none"/><path d="M114.3 29.8L120.9 32.7M126.4 37.1L122.7 32.9M42.1 19.2L44.3 13.8M50.2 16.7L57.3 15.6" stroke="hsl(211,30%,64%)" stroke-width="1.06" stroke-linecap="round" fill="none"/><path d="M124.0 39.9L125.5 38.1M31.0 20.3L30.5 24.4M119.7 39.8L124.0 39.9M19.3 10.9L22.9 10.5M111.1 31.3L111.4 35.1M89.3 23.1L93.0 21.8" stroke="hsl(240,55%,29%)" stroke-width="2.66" stroke-linecap="round" fill="none"/><path d="M19.3 10.9L22.9 10.5M111.1 31.3L111.4 35.1M89.3 23.1L93.0 21.8" stroke="hsl(230,55%,35%)" stroke-width="3.21" stroke-linecap="round" fill="none"/><path d="M89.2 4.2L94.6 5.2M119.7 13.0L125.2 7.0" stroke="hsl(215,30%,66%)" stroke-width="1.02" stroke-linecap="round" fill="none"/><path d="M121.6 17.1L120.0 13.2M94.1 10.3L96.6 5.3M19.5 32.0L24.7 34.1M41.9 20.2L45.6 24.2" stroke="hsl(233,30%,71%)" stroke-width="0.86" stroke-linecap="round" fill="none"/><path d="M50.1 13.7L57.3 12.3M111.9 28.2L111.1 31.3M58.0 25.3L61.6 24.8" stroke="hsl(244,55%,30%)" stroke-width="2.73" stroke-linecap="round" fill="none"/><path d="M98.0 26.9L98.4 30.6M94.7 23.4L96.6 25.3M15.3 18.3L19.3 10.9M128.6 34.0L128.3 30.4M50.1 13.7L57.3 12.3" stroke="hsl(225,55%,36%)" stroke-width="3.39" stroke-linecap="round" fill="none"/><path d="M117.0 13.0L115.1 17.5M23.8 24.1L21.3 24.2M57.3 12.3L64.7 11.8M26.9 23.9L23.8 24.1" stroke="hsl(201,55%,24%)" stroke-width="2.90" stroke-linecap="round" fill="none"/><path d="M30.8 20.3L29.0 22.2M120.6 13.1L117.0 13.0" stroke="hsl(236,55%,25%)" stroke-width="2.64" stroke-linecap="round" fill="none"/><path d="M41.7 27.3L48.5 30.8M130.6 6.1L128.1 1.1M54.6 7.8L51.2 4.2M82.3 33.2L80.7 40.1" stroke="hsl(224,30%,71%)" stroke-width="0.94" stroke-linecap="round" fill="none"/><path d="M4 27.1 Q75 32.6 146 30.1" stroke="#5B6B8C" stroke-width="1.2" fill="none" opacity="0.7"/></svg>